<?xml version="1.0" encoding="utf-8"?>
<!-- Generator: Adobe Illustrator 19.0.0, SVG Export Plug-In . SVG Version: 6.00 Build 0)  -->
<svg version="1.1" xmlns="http://www.w3.org/2000/svg" xmlns:xlink="http://www.w3.org/1999/xlink" x="0px" y="0px"
	 viewBox="0 0 541.3 555.2" style="enable-background:new 0 0 541.3 555.2;" xml:space="preserve">
<style type="text/css">
	.st0{display:none;}
	.st1{display:inline;}
	.st2{fill:#605216;}
	.st3{stroke:#605216;stroke-width:3;stroke-miterlimit:10;}
	.st4{stroke:#605216;stroke-width:10;stroke-miterlimit:10;}
	.st5{stroke:#605216;stroke-width:2;stroke-miterlimit:10;}
	.st6{fill:none;stroke:#605216;stroke-width:2;stroke-miterlimit:10;}
	.st7{display:inline;fill:#605216;}
</style>
<g id="Warstwa_6" class="st0">
	<rect id="XMLID_3_" x="-406" y="-143.9" class="st1" width="1352.5" height="843"/>
</g>
<g id="Warstwa_12">
	<polygon id="XMLID_1_" class="st2" points="39.3,277.6 0,215.8 62.2,177.2 53.6,104.5 126.4,96.7 150.2,27.5 219.2,52.1 270.6,0 
		322.1,52.1 391.1,27.5 414.9,96.7 487.7,104.5 479,177.2 541.3,215.8 502,277.6 541.3,339.4 479,378 487.7,450.7 414.9,458.4 
		391.1,527.7 322.1,503.1 270.6,555.2 219.2,503.1 150.2,527.7 126.4,458.4 53.6,450.7 62.2,378 0,339.4 	"/>
	<polygon id="XMLID_32_" class="st2" points="38.5,277.6 61.4,177.2 52.8,104.5 125.6,96.7 149.4,27.5 218.3,52.1 269.8,0 
		321.3,52.1 390.2,27.5 414,96.7 486.8,104.5 478.2,177.2 501.1,277.6 478.2,378 486.8,450.7 414,458.4 390.2,527.7 321.3,503.1 
		269.8,555.2 218.3,503.1 149.4,527.7 125.6,458.4 52.8,450.7 61.4,378 	"/>
	<polygon id="XMLID_33_" points="49,277.6 11.5,218.6 70.9,181.8 62.7,112.4 132.2,105 154.9,38.9 220.7,62.4 269.8,12.7 
		318.9,62.4 384.7,38.9 407.4,105 476.9,112.4 468.7,181.8 528.1,218.6 490.6,277.6 528.1,336.5 468.7,373.4 476.9,442.8 
		407.4,450.2 384.7,516.3 318.9,492.8 269.8,542.5 220.7,492.8 154.9,516.3 132.2,450.2 62.7,442.8 70.9,373.4 11.5,336.5 	"/>
</g>
<g id="Warstwa_8">
	<circle id="XMLID_29_" class="st2" cx="434.9" cy="70.5" r="14.2"/>
	<circle id="XMLID_26_" class="st2" cx="328.7" cy="19.3" r="14.2"/>
	<circle id="XMLID_21_" class="st2" cx="210.8" cy="19.3" r="14.2"/>
	<circle id="XMLID_19_" class="st2" cx="104.9" cy="70.7" r="14.2"/>
	<circle id="XMLID_18_" class="st2" cx="104.8" cy="484.6" r="14.2"/>
	<circle id="XMLID_17_" class="st2" cx="211" cy="535.9" r="14.2"/>
	<circle id="XMLID_16_" class="st2" cx="434.7" cy="484.5" r="14.2"/>
	<circle id="XMLID_15_" class="st2" cx="328.6" cy="535.9" r="14.2"/>
</g>
<g id="Warstwa_3">
	<path id="XMLID_6_" class="st3" d="M530.8,180.9c-17.9-7-36-13.2-54.2-18.6C436.1,90.1,358.9,41.3,270.3,41.3
		C181.7,41.3,104.5,90,64,162.1c-18.4,5.5-36.5,11.8-54.3,18.7v203.9c19.5,5.2,38.6,9.9,57.4,14.1
		c41.3,69.1,116.8,115.4,203.2,115.4c85.9,0,161.1-45.8,202.5-114.3c19-4.4,38.3-9.5,58-15.2V180.9z"/>
</g>
<g id="Warstwa_1">
	<circle id="XMLID_13_" class="st3" cx="266.3" cy="274.9" r="210.1"/>
	<path id="XMLID_11_" class="st4" d="M503.2,372.1c-163.1,47.3-296.2,44.6-462.9,0V191c141.6-55.5,308.7-60,462.9,0V372.1z"/>
</g>
<g id="Warstwa_4">
	<polyline id="XMLID_5_" class="st3" points="286,74.8 230,74.8 208.9,124.6 220.4,138.5 243.9,132.7 254.9,108.8 286,108.8 
		254.5,108.8 285.6,108.8 296.7,132.7 320.1,138.5 331.6,124.6 310.5,74.8 254.5,74.8 	"/>
</g>
<g id="Warstwa_5">
	<path id="XMLID_9_" class="st5" d="M111.9,402.8c94.3,25.6,182.6,27.5,254.7,9.9l23.1,4.6C316.5,452.2,205.4,444.4,111.9,402.8z"/>
	<path id="XMLID_8_" class="st5" d="M111.9,402.8c95.5,39.3,188.7,52.2,277.8,15l-8.3,22.3C299.2,499.4,189.8,487.8,111.9,402.8z"/>
	<path id="XMLID_7_" class="st6" d="M111.9,402.8c96.4,43.1,211.3,55.7,312.2-1.8"/>
</g>
<g id="Warstwa_7" class="st0">
	<rect id="XMLID_23_" x="-27.4" y="-120.7" class="st7" width="14.2" height="170.1"/>
	<path id="XMLID_30_" class="st7" d="M-27.4-120.7c0,0,0-22.6,22.6-22.7c0,0,0,14.4,0,14.2c-8.4,0-8.4,8.5-8.4,8.5H-27.4z"/>
	<path id="XMLID_34_" class="st7" d="M-27.4,49.4c0,0,0,22.6,22.6,22.7c0,0,0-14.4,0-14.2c-8.4,0-8.4-8.5-8.4-8.5H-27.4z"/>
	<path id="XMLID_35_" class="st7" d="M71.9-120.7c0,0,0-22.6-22.6-22.7c0,0,0,14.4,0,14.2c8.4,0,8.4,8.5,8.4,8.5H71.9z"/>
	<path id="XMLID_36_" class="st7" d="M71.9,49.4c0,0,0,22.6-22.6,22.7c0,0,0-14.4,0-14.2c8.4,0,8.4-8.5,8.4-8.5H71.9z"/>
	<rect id="XMLID_37_" x="-4.8" y="-143.4" class="st7" width="54" height="14.2"/>
	<rect id="XMLID_38_" x="-4.8" y="57.9" class="st7" width="54" height="14.2"/>
	<rect id="XMLID_40_" x="57.7" y="4" class="st7" width="14.2" height="45.4"/>
	<rect id="XMLID_39_" x="57.7" y="-120.7" class="st7" width="14.2" height="45.4"/>
	<rect id="XMLID_41_" x="86" y="-143.4" class="st7" width="14.2" height="215.4"/>
	<path id="XMLID_42_" class="st7" d="M185.2-55.4c0,0,0-22.6-22.6-22.7c0,0,0,14.4,0,14.2c8.4,0,8.4,8.5,8.4,8.5H185.2z"/>
	<path id="XMLID_43_" class="st7" d="M185.2-86.6c0,0,0,22.6-22.6,22.7c0,0,0-14.4,0-14.2c8.4,0,8.4-8.5,8.4-8.5H185.2z"/>
	<rect id="XMLID_44_" x="171.1" y="-143.4" class="st7" width="14.2" height="56.8"/>
	<rect id="XMLID_45_" x="171.1" y="-55.7" class="st7" width="14.2" height="127.7"/>
	<rect id="XMLID_46_" x="100.2" y="-78.1" class="st7" width="62.4" height="14.2"/>
</g>
<g id="Warstwa_9">
	<path id="XMLID_20_" class="st2" d="M372.6,235.3v-45.4c0,0,0-22.6-22.6-22.7v0h-54c-22.6,0.1-22.6,22.7-22.6,22.7V360h0
		c0,0.1,0,22.6,22.6,22.7v0h54v0c22.5-0.1,22.6-22.5,22.6-22.7h0v-45.4h-14.2V360c0,0-0.1,8.5-8.4,8.5c0,0,0,0,0,0h-54v0
		c-8.4,0-8.4-8.5-8.4-8.5h0V189.9c0,0,0.1-8.5,8.4-8.5v0h54v0c8.4,0,8.4,8.5,8.4,8.5v45.4H372.6z"/>
	<path id="XMLID_12_" class="st2" d="M259.2,224v-56.8H245V224h0c0,0-0.1,8.5-8.4,8.5c0,0,0,0,0,0h-62.4v-65.3H160v215.4h14.2v-136
		h62.4c0,0,0,0,0,0c8.3,0,8.4,8.5,8.4,8.5v127.5h14.2V254.9h0c-0.1-1.6-0.6-9.3-5.6-15.3C259.2,233,259.2,224,259.2,224z"/>
</g>
</svg>
